<?xml version="1.0" standalone="no"?>
<!DOCTYPE svg PUBLIC "-//W3C//DTD SVG 20010904//EN"
 "http://www.w3.org/TR/2001/REC-SVG-20010904/DTD/svg10.dtd">
<svg version="1.0" xmlns="http://www.w3.org/2000/svg"
 width="50px" height="50px" viewBox="0 0 977.000000 942.000000"
 preserveAspectRatio="xMidYMid meet">

<g transform="translate(0.000000,942.000000) scale(0.100000,-0.100000)"
fill="#ffffff" stroke="none">
<path d="M4850 9348 c-15 -36 -66 -149 -110 -243 -16 -33 -52 -112 -80 -175
-29 -63 -68 -148 -87 -188 -19 -40 -32 -79 -29 -87 3 -8 22 -23 43 -35 90 -48
172 -126 234 -220 27 -41 49 -82 49 -92 0 -24 28 -35 44 -17 7 8 21 36 30 62
10 26 33 71 52 99 19 27 34 54 34 59 0 5 5 9 11 9 7 0 33 19 58 43 25 24 70
56 98 73 29 16 53 32 53 37 0 4 -38 85 -84 180 -46 94 -112 231 -146 302 -105
225 -102 220 -131 223 -21 3 -29 -3 -39 -30z"/>
<path d="M5591 8473 c-94 -16 -162 -38 -226 -74 -27 -16 -59 -33 -70 -38 -34
-15 -158 -143 -198 -203 -62 -94 -97 -224 -97 -360 0 -93 -19 -141 -66 -163
-40 -19 -58 -19 -98 0 -47 22 -63 59 -61 135 2 89 -14 220 -31 247 -8 12 -14
29 -14 36 0 17 -37 87 -78 147 -47 69 -155 157 -232 190 -14 5 -33 14 -42 20
-22 13 -152 39 -203 41 -64 3 -236 -20 -363 -48 -64 -14 -139 -30 -167 -35
-27 -6 -64 -17 -82 -24 -17 -8 -40 -14 -51 -14 -11 0 -33 -7 -48 -15 -16 -8
-36 -15 -45 -15 -9 0 -30 -7 -45 -15 -16 -8 -39 -15 -51 -15 -12 0 -24 -4 -28
-9 -3 -5 -19 -12 -36 -16 -17 -4 -42 -13 -57 -21 -15 -8 -33 -14 -39 -14 -7 0
-13 -4 -13 -10 0 -5 -7 -10 -16 -10 -16 0 -89 -30 -136 -55 -14 -8 -33 -15
-41 -15 -9 0 -17 -4 -19 -8 -1 -5 -41 -28 -88 -51 -132 -66 -185 -97 -325
-190 -71 -47 -136 -87 -142 -89 -7 -2 -13 -8 -13 -13 0 -5 -11 -14 -25 -19
-14 -5 -25 -14 -25 -20 0 -5 -6 -10 -13 -10 -7 0 -26 -13 -42 -30 -16 -16 -35
-30 -42 -30 -7 0 -13 -4 -13 -8 0 -4 -22 -24 -49 -44 -56 -42 -73 -57 -190
-165 -150 -139 -275 -267 -351 -363 -19 -24 -40 -48 -46 -54 -5 -6 -48 -60
-95 -121 -150 -194 -273 -388 -308 -485 -56 -152 -59 -357 -9 -495 70 -194
228 -350 445 -439 105 -44 132 -68 140 -125 5 -36 2 -44 -30 -76 -41 -41 -60
-43 -149 -15 -34 11 -74 20 -86 20 -13 0 -40 7 -59 16 -28 14 -55 16 -151 11
-101 -5 -128 -10 -195 -37 -42 -17 -103 -49 -135 -70 -58 -39 -132 -111 -132
-129 0 -5 -3 -11 -7 -13 -14 -6 -49 -62 -76 -124 -30 -68 -53 -180 -68 -324
-5 -52 -14 -131 -20 -175 -13 -96 -7 -531 9 -695 16 -165 52 -354 102 -550 45
-172 144 -464 195 -575 13 -27 35 -76 49 -107 77 -172 220 -439 238 -446 4 -2
8 -8 8 -13 0 -19 253 -381 270 -387 6 -2 10 -10 10 -17 0 -7 3 -15 8 -17 4 -1
25 -25 47 -53 91 -113 168 -179 270 -229 128 -62 168 -71 340 -71 149 0 164 2
225 27 36 14 72 28 80 31 26 8 172 121 233 180 75 72 143 117 178 117 15 0 41
-12 58 -26 26 -21 31 -33 31 -68 0 -43 -13 -70 -61 -121 -38 -41 -109 -147
-109 -163 0 -7 -4 -20 -9 -30 -14 -25 -41 -159 -41 -203 0 -104 71 -312 127
-374 10 -11 28 -33 40 -48 32 -41 137 -117 218 -156 39 -19 77 -40 85 -47 8
-6 30 -15 48 -19 17 -3 32 -11 32 -16 0 -5 8 -9 18 -9 9 0 44 -14 77 -30 33
-16 64 -30 68 -30 5 0 23 -6 40 -14 18 -8 61 -24 97 -35 36 -12 74 -26 85 -31
90 -40 495 -133 637 -146 35 -3 95 -12 133 -20 56 -12 146 -14 450 -11 384 3
410 5 690 51 49 8 198 40 320 68 106 24 156 39 290 85 55 19 116 39 135 44 19
6 49 16 65 24 17 7 48 21 70 30 190 78 331 213 408 390 49 112 61 172 60 295
0 135 -23 231 -84 352 -48 95 -51 143 -12 182 59 59 103 48 207 -53 96 -92
197 -166 285 -210 75 -36 193 -50 276 -31 28 6 66 15 85 19 32 7 112 43 168
75 26 15 225 207 287 278 46 52 85 99 152 183 26 33 51 61 56 63 4 2 7 9 7 17
0 7 7 18 15 25 19 16 145 206 145 219 0 6 5 11 10 11 6 0 10 6 10 13 0 7 5 18
12 25 25 25 207 371 224 425 7 22 34 88 59 142 8 17 24 59 35 95 12 36 25 72
30 81 5 9 12 33 15 53 4 20 11 38 15 41 5 3 11 24 15 48 4 23 11 47 15 52 5 6
13 33 18 60 6 28 17 77 26 110 39 151 68 307 96 528 19 151 21 201 17 520 -5
370 -5 372 -57 509 -12 32 -40 86 -63 120 -45 68 -148 178 -166 178 -6 0 -11
4 -11 9 0 10 -31 30 -82 53 -16 7 -28 16 -28 20 0 4 -8 8 -17 8 -10 0 -31 7
-46 15 -16 8 -56 19 -90 25 -34 6 -81 15 -105 21 -23 5 -55 9 -71 9 -37 0
-206 -35 -260 -55 -55 -19 -120 -19 -148 0 -34 24 -47 76 -29 119 18 43 55 63
225 123 93 32 140 55 185 90 63 47 137 130 155 173 6 14 15 32 20 40 13 23 29
60 46 110 16 50 22 305 6 314 -4 3 -11 21 -14 40 -5 34 -109 257 -132 286 -7
8 -27 42 -45 75 -18 33 -39 67 -46 76 -8 8 -14 18 -14 22 0 11 -157 235 -211
302 -166 204 -348 396 -483 510 -32 28 -75 64 -95 81 -128 110 -476 351 -533
370 -10 4 -18 10 -18 14 0 5 -10 12 -22 15 -13 4 -50 24 -83 43 -68 41 -258
136 -294 147 -14 4 -45 18 -69 31 -25 13 -49 24 -54 24 -6 0 -24 6 -41 14 -18
8 -81 31 -142 51 -60 20 -114 41 -119 46 -6 5 -17 9 -25 9 -9 0 -45 9 -81 19
-231 69 -364 86 -499 64z m129 -2448 l-75 -75 523 -522 522 -523 75 75 75 75
437 -435 c241 -239 439 -436 442 -438 3 -1 -289 -297 -649 -657 l-655 -655
-440 440 -440 440 138 138 137 137 -73 73 -72 72 -368 -368 c-202 -202 -367
-372 -367 -377 0 -6 30 -41 68 -78 l67 -67 140 140 c77 77 144 140 150 140 6
0 206 -196 445 -435 l435 -435 -660 -660 -660 -660 -440 440 -440 440 75 75
75 75 -523 522 -522 523 -75 -75 -75 -75 -440 440 -440 440 660 660 660 660
435 -435 c239 -239 435 -439 435 -445 0 -6 -61 -71 -135 -145 -74 -74 -135
-139 -135 -145 0 -6 38 -49 85 -95 l85 -85 372 373 373 372 -90 90 -90 90
-137 -137 -138 -138 -440 440 -440 440 652 652 653 653 440 -440 440 -440 -75
-75z"/>
<path d="M610 5979 c-74 -10 -180 -26 -236 -34 -55 -8 -137 -18 -182 -22 -46
-3 -85 -10 -88 -15 -3 -4 -18 -8 -35 -8 -22 0 -29 -5 -29 -20 0 -11 4 -20 9
-20 4 0 33 -24 64 -52 30 -29 75 -71 99 -93 23 -21 77 -71 118 -110 42 -38
120 -110 174 -160 54 -49 104 -96 112 -102 21 -21 44 -15 70 17 26 31 87 74
139 100 17 8 37 19 45 26 20 15 169 54 208 54 25 0 32 4 32 20 0 11 -8 24 -17
27 -21 8 -97 84 -134 133 -48 64 -83 151 -104 253 -5 25 -8 27 -58 26 -28 -1
-113 -10 -187 -20z"/>
<path d="M8900 5951 c-5 -11 -10 -28 -10 -38 0 -10 -9 -43 -21 -73 -11 -30
-23 -64 -26 -75 -10 -32 -103 -163 -140 -195 -51 -46 -42 -64 37 -71 86 -9
197 -42 222 -67 7 -7 16 -12 21 -12 5 0 38 -22 73 -50 69 -54 88 -59 123 -32
32 25 359 334 502 475 34 33 37 57 9 57 -11 0 -20 4 -20 9 0 5 -44 12 -97 16
-53 4 -104 11 -112 15 -9 5 -83 14 -166 20 -82 6 -170 15 -195 20 -25 5 -77
11 -117 14 -65 5 -73 4 -83 -13z"/>
<path d="M2494 1099 c-3 -6 -21 -17 -38 -25 -17 -8 -38 -18 -46 -23 -28 -17
-88 -41 -102 -41 -8 0 -19 -5 -25 -11 -7 -7 -59 -11 -141 -11 l-131 1 -10 -52
c-5 -29 -19 -104 -31 -167 -12 -63 -25 -135 -30 -160 -5 -25 -16 -85 -25 -135
-8 -49 -23 -129 -32 -177 -25 -128 -18 -131 122 -47 28 16 64 37 80 45 17 8
46 24 65 35 19 12 53 31 75 42 22 12 42 25 45 28 3 3 19 12 35 21 44 22 123
65 180 99 28 17 65 37 83 45 17 8 32 18 32 22 0 4 -16 48 -36 97 -35 87 -37
94 -38 225 0 74 2 150 6 168 6 27 5 32 -12 32 -10 0 -22 -5 -26 -11z"/>
<path d="M7198 1028 c19 -62 24 -271 6 -309 -25 -53 -54 -135 -54 -152 0 -10
10 -22 23 -27 12 -6 36 -19 52 -30 17 -10 57 -33 90 -49 33 -17 89 -47 125
-67 36 -20 106 -57 155 -83 50 -27 106 -57 125 -69 119 -72 167 -68 140 13 -6
19 -16 61 -21 92 -5 32 -16 92 -24 133 -9 41 -22 107 -30 145 -7 39 -20 106
-29 150 -9 44 -22 109 -29 144 l-13 64 -149 2 c-118 2 -157 6 -180 18 -16 10
-38 17 -47 17 -9 0 -20 5 -23 10 -3 6 -13 10 -22 10 -8 0 -26 9 -40 20 -14 11
-36 20 -49 20 l-23 0 17 -52z"/>
</g>
</svg>
