<?xml version="1.0" standalone="no"?>
<!DOCTYPE svg PUBLIC "-//W3C//DTD SVG 20010904//EN"
 "http://www.w3.org/TR/2001/REC-SVG-20010904/DTD/svg10.dtd">
<svg version="1.0" xmlns="http://www.w3.org/2000/svg"
 width="100px" height="100px" viewBox="0 0 256.000000 256.000000"
 preserveAspectRatio="xMidYMid meet">

<g transform="translate(0.000000,256.000000) scale(0.100000,-0.100000)"
fill="#ffffff" stroke="none">
<path d="M1138 1767 c-243 -83 -394 -346 -333 -580 18 -69 52 -140 64 -132 5
3 7 -3 4 -13 -6 -24 61 -107 121 -150 202 -145 452 -128 621 42 203 205 207
514 10 711 -33 33 -83 72 -111 87 -114 62 -258 75 -376 35z m78 -280 c-113
-112 -132 -175 -68 -234 14 -12 20 -23 13 -23 -7 0 -23 11 -36 25 -35 34 -33
88 3 146 23 36 155 169 168 169 2 0 -34 -37 -80 -83z m174 -37 c0 -5 -5 -10
-11 -10 -5 0 -7 5 -4 10 3 6 8 10 11 10 2 0 4 -4 4 -10z m-290 -30 c0 -5 -4
-10 -10 -10 -5 0 -10 5 -10 10 0 6 5 10 10 10 6 0 10 -4 10 -10z m200 -55 c0
-8 -4 -15 -9 -15 -13 0 -22 16 -14 24 11 11 23 6 23 -9z m180 -11 c0 -8 -4
-14 -9 -14 -11 0 -22 26 -14 34 9 9 23 -3 23 -20z m-497 -72 c-32 -37 -71 -83
-86 -102 l-29 -35 28 40 c31 45 133 165 140 165 3 0 -21 -31 -53 -68z"/>
<path d="M1680 1760 c0 -5 -8 -10 -17 -11 -15 0 -15 -2 2 -8 11 -5 23 -7 28
-4 11 6 9 33 -3 33 -5 0 -10 -4 -10 -10z"/>
</g>
</svg>
